<svg width="241" height="33" viewBox="0 0 241 33" fill="none" xmlns="http://www.w3.org/2000/svg">
<path d="M59.66 26.4C59.1933 26.9467 58.6467 27.36 58.02 27.64C57.4067 27.92 56.7333 28.06 56 28.06C55.04 28.06 54.16 27.84 53.36 27.4C52.56 26.9733 51.6467 26.2267 50.62 25.16C49.3267 25.0533 48.1667 24.68 47.14 24.04C46.1133 23.3867 45.3133 22.54 44.74 21.5C44.1667 20.4467 43.88 19.28 43.88 18C43.88 16.64 44.2067 15.4133 44.86 14.32C45.5133 13.2133 46.4133 12.3533 47.56 11.74C48.7067 11.1133 49.9933 10.8 51.42 10.8C52.8467 10.8 54.1333 11.1133 55.28 11.74C56.4267 12.3533 57.3267 13.2067 57.98 14.3C58.6333 15.3933 58.96 16.6267 58.96 18C58.96 19.1067 58.74 20.1333 58.3 21.08C57.86 22.0133 57.2467 22.8133 56.46 23.48C55.6733 24.1333 54.76 24.6067 53.72 24.9C54.1067 25.3133 54.4867 25.6133 54.86 25.8C55.2333 25.9867 55.6333 26.08 56.06 26.08C56.98 26.08 57.78 25.7067 58.46 24.96L59.66 26.4ZM46.5 18C46.5 18.9333 46.7133 19.78 47.14 20.54C47.5667 21.2867 48.1533 21.8733 48.9 22.3C49.6467 22.7133 50.4867 22.92 51.42 22.92C52.3533 22.92 53.1933 22.7133 53.94 22.3C54.6867 21.8733 55.2733 21.2867 55.7 20.54C56.1267 19.78 56.34 18.9333 56.34 18C56.34 17.0667 56.1267 16.2267 55.7 15.48C55.2733 14.72 54.6867 14.1333 53.94 13.72C53.1933 13.2933 52.3533 13.08 51.42 13.08C50.4867 13.08 49.6467 13.2933 48.9 13.72C48.1533 14.1333 47.5667 14.72 47.14 15.48C46.7133 16.2267 46.5 17.0667 46.5 18ZM71.8159 14.32V25H69.4359V23.64C69.0359 24.12 68.5359 24.4933 67.9359 24.76C67.3359 25.0133 66.6893 25.14 65.9959 25.14C64.5693 25.14 63.4426 24.7467 62.6159 23.96C61.8026 23.16 61.3959 21.98 61.3959 20.42V14.32H63.8959V20.08C63.8959 21.04 64.1093 21.76 64.5359 22.24C64.9759 22.7067 65.5959 22.94 66.3959 22.94C67.2893 22.94 67.9959 22.6667 68.5159 22.12C69.0493 21.56 69.3159 20.76 69.3159 19.72V14.32H71.8159ZM75.0892 14.32H77.5892V25H75.0892V14.32ZM76.3492 12.56C75.8959 12.56 75.5159 12.42 75.2092 12.14C74.9026 11.8467 74.7492 11.4867 74.7492 11.06C74.7492 10.6333 74.9026 10.28 75.2092 10C75.5159 9.70667 75.8959 9.56 76.3492 9.56C76.8026 9.56 77.1826 9.7 77.4892 9.98C77.7959 10.2467 77.9492 10.5867 77.9492 11C77.9492 11.44 77.7959 11.8133 77.4892 12.12C77.1959 12.4133 76.8159 12.56 76.3492 12.56ZM90.8705 14.32L86.2905 25H83.7105L79.1305 14.32H81.7305L85.0505 22.24L88.4705 14.32H90.8705ZM102.18 19.72C102.18 19.8933 102.167 20.14 102.14 20.46H93.76C93.9067 21.2467 94.2867 21.8733 94.9 22.34C95.5267 22.7933 96.3 23.02 97.22 23.02C98.3933 23.02 99.36 22.6333 100.12 21.86L101.46 23.4C100.98 23.9733 100.373 24.4067 99.64 24.7C98.9067 24.9933 98.08 25.14 97.16 25.14C95.9867 25.14 94.9533 24.9067 94.06 24.44C93.1667 23.9733 92.4733 23.3267 91.98 22.5C91.5 21.66 91.26 20.7133 91.26 19.66C91.26 18.62 91.4933 17.6867 91.96 16.86C92.44 16.02 93.1 15.3667 93.94 14.9C94.78 14.4333 95.7267 14.2 96.78 14.2C97.82 14.2 98.7467 14.4333 99.56 14.9C100.387 15.3533 101.027 16 101.48 16.84C101.947 17.6667 102.18 18.6267 102.18 19.72ZM96.78 16.2C95.98 16.2 95.3 16.44 94.74 16.92C94.1933 17.3867 93.86 18.0133 93.74 18.8H99.8C99.6933 18.0267 99.3667 17.4 98.82 16.92C98.2733 16.44 97.5933 16.2 96.78 16.2ZM106.961 15.88C107.681 14.76 108.948 14.2 110.761 14.2V16.58C110.548 16.54 110.355 16.52 110.181 16.52C109.208 16.52 108.448 16.8067 107.901 17.38C107.355 17.94 107.081 18.7533 107.081 19.82V25H104.581V14.32H106.961V15.88Z" fill="#44444F"/>
<path d="M120.464 18.58C121.08 18.58 121.632 18.716 122.12 18.988C122.608 19.26 122.988 19.64 123.26 20.128C123.54 20.616 123.68 21.18 123.68 21.82C123.68 22.46 123.54 23.028 123.26 23.524C122.988 24.012 122.608 24.392 122.12 24.664C121.632 24.936 121.08 25.072 120.464 25.072C119.992 25.072 119.56 24.98 119.168 24.796C118.776 24.612 118.452 24.344 118.196 23.992V25H117.092V16.096H118.244V19.6C118.5 19.264 118.82 19.012 119.204 18.844C119.588 18.668 120.008 18.58 120.464 18.58ZM120.368 24.064C120.776 24.064 121.14 23.972 121.46 23.788C121.788 23.596 122.044 23.332 122.228 22.996C122.42 22.652 122.516 22.26 122.516 21.82C122.516 21.38 122.42 20.992 122.228 20.656C122.044 20.312 121.788 20.048 121.46 19.864C121.14 19.68 120.776 19.588 120.368 19.588C119.968 19.588 119.604 19.68 119.276 19.864C118.948 20.048 118.692 20.312 118.508 20.656C118.324 20.992 118.232 21.38 118.232 21.82C118.232 22.26 118.324 22.652 118.508 22.996C118.692 23.332 118.948 23.596 119.276 23.788C119.604 23.972 119.968 24.064 120.368 24.064ZM130.724 18.64L127.64 25.636C127.368 26.284 127.048 26.74 126.68 27.004C126.32 27.268 125.884 27.4 125.372 27.4C125.06 27.4 124.756 27.348 124.46 27.244C124.172 27.148 123.932 27.004 123.74 26.812L124.232 25.948C124.56 26.26 124.94 26.416 125.372 26.416C125.652 26.416 125.884 26.34 126.068 26.188C126.26 26.044 126.432 25.792 126.584 25.432L126.788 24.988L123.98 18.64H125.18L127.4 23.728L129.596 18.64H130.724ZM140.542 22.9H136.078L135.154 25H133.918L137.722 16.6H138.91L142.726 25H141.466L140.542 22.9ZM140.122 21.94L138.31 17.824L136.498 21.94H140.122ZM144.915 19.708C145.115 19.34 145.411 19.06 145.803 18.868C146.195 18.676 146.671 18.58 147.231 18.58V19.696C147.167 19.688 147.079 19.684 146.967 19.684C146.343 19.684 145.851 19.872 145.491 20.248C145.139 20.616 144.963 21.144 144.963 21.832V25H143.811V18.64H144.915V19.708ZM149.755 19.708C149.955 19.34 150.251 19.06 150.643 18.868C151.035 18.676 151.511 18.58 152.071 18.58V19.696C152.007 19.688 151.919 19.684 151.807 19.684C151.183 19.684 150.691 19.872 150.331 20.248C149.979 20.616 149.803 21.144 149.803 21.832V25H148.651V18.64H149.755V19.708ZM156.156 25.072C155.524 25.072 154.956 24.932 154.452 24.652C153.948 24.372 153.552 23.988 153.264 23.5C152.984 23.004 152.844 22.444 152.844 21.82C152.844 21.196 152.984 20.64 153.264 20.152C153.552 19.656 153.948 19.272 154.452 19C154.956 18.72 155.524 18.58 156.156 18.58C156.788 18.58 157.352 18.72 157.848 19C158.352 19.272 158.744 19.656 159.024 20.152C159.312 20.64 159.456 21.196 159.456 21.82C159.456 22.444 159.312 23.004 159.024 23.5C158.744 23.988 158.352 24.372 157.848 24.652C157.352 24.932 156.788 25.072 156.156 25.072ZM156.156 24.064C156.564 24.064 156.928 23.972 157.248 23.788C157.576 23.596 157.832 23.332 158.016 22.996C158.2 22.652 158.292 22.26 158.292 21.82C158.292 21.38 158.2 20.992 158.016 20.656C157.832 20.312 157.576 20.048 157.248 19.864C156.928 19.68 156.564 19.588 156.156 19.588C155.748 19.588 155.38 19.68 155.052 19.864C154.732 20.048 154.476 20.312 154.284 20.656C154.1 20.992 154.008 21.38 154.008 21.82C154.008 22.26 154.1 22.652 154.284 22.996C154.476 23.332 154.732 23.596 155.052 23.788C155.38 23.972 155.748 24.064 156.156 24.064ZM170.497 18.64L168.121 25H167.017L165.181 20.176L163.321 25H162.217L159.853 18.64H160.945L162.793 23.704L164.713 18.64H165.685L167.569 23.728L169.465 18.64H170.497ZM181.153 23.956V25H175.057V16.6H180.985V17.644H176.257V20.224H180.469V21.244H176.257V23.956H181.153ZM182.928 16.096H184.08V25H182.928V16.096ZM192.028 21.856C192.028 21.944 192.02 22.06 192.004 22.204H186.844C186.916 22.764 187.16 23.216 187.576 23.56C188 23.896 188.524 24.064 189.148 24.064C189.908 24.064 190.52 23.808 190.984 23.296L191.62 24.04C191.332 24.376 190.972 24.632 190.54 24.808C190.116 24.984 189.64 25.072 189.112 25.072C188.44 25.072 187.844 24.936 187.324 24.664C186.804 24.384 186.4 23.996 186.112 23.5C185.832 23.004 185.692 22.444 185.692 21.82C185.692 21.204 185.828 20.648 186.1 20.152C186.38 19.656 186.76 19.272 187.24 19C187.728 18.72 188.276 18.58 188.884 18.58C189.492 18.58 190.032 18.72 190.504 19C190.984 19.272 191.356 19.656 191.62 20.152C191.892 20.648 192.028 21.216 192.028 21.856ZM188.884 19.552C188.332 19.552 187.868 19.72 187.492 20.056C187.124 20.392 186.908 20.832 186.844 21.376H190.924C190.86 20.84 190.64 20.404 190.264 20.068C189.896 19.724 189.436 19.552 188.884 19.552ZM196.399 25.072C195.751 25.072 195.171 24.932 194.659 24.652C194.155 24.372 193.759 23.988 193.471 23.5C193.183 23.004 193.039 22.444 193.039 21.82C193.039 21.196 193.183 20.64 193.471 20.152C193.759 19.656 194.155 19.272 194.659 19C195.171 18.72 195.751 18.58 196.399 18.58C196.975 18.58 197.487 18.696 197.935 18.928C198.391 19.16 198.743 19.496 198.991 19.936L198.115 20.5C197.915 20.196 197.667 19.968 197.371 19.816C197.075 19.664 196.747 19.588 196.387 19.588C195.971 19.588 195.595 19.68 195.259 19.864C194.931 20.048 194.671 20.312 194.479 20.656C194.295 20.992 194.203 21.38 194.203 21.82C194.203 22.268 194.295 22.664 194.479 23.008C194.671 23.344 194.931 23.604 195.259 23.788C195.595 23.972 195.971 24.064 196.387 24.064C196.747 24.064 197.075 23.988 197.371 23.836C197.667 23.684 197.915 23.456 198.115 23.152L198.991 23.704C198.743 24.144 198.391 24.484 197.935 24.724C197.487 24.956 196.975 25.072 196.399 25.072ZM204.141 24.628C203.973 24.772 203.765 24.884 203.517 24.964C203.269 25.036 203.013 25.072 202.749 25.072C202.109 25.072 201.613 24.9 201.261 24.556C200.909 24.212 200.733 23.72 200.733 23.08V19.588H199.653V18.64H200.733V17.248H201.885V18.64H203.709V19.588H201.885V23.032C201.885 23.376 201.969 23.64 202.137 23.824C202.313 24.008 202.561 24.1 202.881 24.1C203.233 24.1 203.533 24 203.781 23.8L204.141 24.628ZM206.637 19.708C206.837 19.34 207.133 19.06 207.525 18.868C207.917 18.676 208.393 18.58 208.953 18.58V19.696C208.889 19.688 208.801 19.684 208.689 19.684C208.065 19.684 207.573 19.872 207.213 20.248C206.861 20.616 206.685 21.144 206.685 21.832V25H205.533V18.64H206.637V19.708ZM213.039 25.072C212.407 25.072 211.839 24.932 211.335 24.652C210.831 24.372 210.435 23.988 210.147 23.5C209.867 23.004 209.727 22.444 209.727 21.82C209.727 21.196 209.867 20.64 210.147 20.152C210.435 19.656 210.831 19.272 211.335 19C211.839 18.72 212.407 18.58 213.039 18.58C213.671 18.58 214.235 18.72 214.731 19C215.235 19.272 215.627 19.656 215.907 20.152C216.195 20.64 216.339 21.196 216.339 21.82C216.339 22.444 216.195 23.004 215.907 23.5C215.627 23.988 215.235 24.372 214.731 24.652C214.235 24.932 213.671 25.072 213.039 25.072ZM213.039 24.064C213.447 24.064 213.811 23.972 214.131 23.788C214.459 23.596 214.715 23.332 214.899 22.996C215.083 22.652 215.175 22.26 215.175 21.82C215.175 21.38 215.083 20.992 214.899 20.656C214.715 20.312 214.459 20.048 214.131 19.864C213.811 19.68 213.447 19.588 213.039 19.588C212.631 19.588 212.263 19.68 211.935 19.864C211.615 20.048 211.359 20.312 211.167 20.656C210.983 20.992 210.891 21.38 210.891 21.82C210.891 22.26 210.983 22.652 211.167 22.996C211.359 23.332 211.615 23.596 211.935 23.788C212.263 23.972 212.631 24.064 213.039 24.064ZM221.328 18.58C222.136 18.58 222.776 18.816 223.248 19.288C223.728 19.752 223.968 20.436 223.968 21.34V25H222.816V21.472C222.816 20.856 222.668 20.392 222.372 20.08C222.076 19.768 221.652 19.612 221.1 19.612C220.476 19.612 219.984 19.796 219.624 20.164C219.264 20.524 219.084 21.044 219.084 21.724V25H217.932V18.64H219.036V19.6C219.268 19.272 219.58 19.02 219.972 18.844C220.372 18.668 220.824 18.58 221.328 18.58ZM226.1 18.64H227.252V25H226.1V18.64ZM226.676 17.416C226.452 17.416 226.264 17.344 226.112 17.2C225.968 17.056 225.896 16.88 225.896 16.672C225.896 16.464 225.968 16.288 226.112 16.144C226.264 15.992 226.452 15.916 226.676 15.916C226.9 15.916 227.084 15.988 227.228 16.132C227.38 16.268 227.456 16.44 227.456 16.648C227.456 16.864 227.38 17.048 227.228 17.2C227.084 17.344 226.9 17.416 226.676 17.416ZM232.223 25.072C231.575 25.072 230.995 24.932 230.483 24.652C229.979 24.372 229.583 23.988 229.295 23.5C229.007 23.004 228.863 22.444 228.863 21.82C228.863 21.196 229.007 20.64 229.295 20.152C229.583 19.656 229.979 19.272 230.483 19C230.995 18.72 231.575 18.58 232.223 18.58C232.799 18.58 233.311 18.696 233.759 18.928C234.215 19.16 234.567 19.496 234.815 19.936L233.939 20.5C233.739 20.196 233.491 19.968 233.195 19.816C232.899 19.664 232.571 19.588 232.211 19.588C231.795 19.588 231.419 19.68 231.083 19.864C230.755 20.048 230.495 20.312 230.303 20.656C230.119 20.992 230.027 21.38 230.027 21.82C230.027 22.268 230.119 22.664 230.303 23.008C230.495 23.344 230.755 23.604 231.083 23.788C231.419 23.972 231.795 24.064 232.211 24.064C232.571 24.064 232.899 23.988 233.195 23.836C233.491 23.684 233.739 23.456 233.939 23.152L234.815 23.704C234.567 24.144 234.215 24.484 233.759 24.724C233.311 24.956 232.799 25.072 232.223 25.072ZM238.131 25.072C237.611 25.072 237.111 25.004 236.631 24.868C236.151 24.724 235.775 24.544 235.503 24.328L235.983 23.416C236.263 23.616 236.603 23.776 237.003 23.896C237.403 24.016 237.807 24.076 238.215 24.076C239.223 24.076 239.727 23.788 239.727 23.212C239.727 23.02 239.659 22.868 239.523 22.756C239.387 22.644 239.215 22.564 239.007 22.516C238.807 22.46 238.519 22.4 238.143 22.336C237.631 22.256 237.211 22.164 236.883 22.06C236.563 21.956 236.287 21.78 236.055 21.532C235.823 21.284 235.707 20.936 235.707 20.488C235.707 19.912 235.947 19.452 236.427 19.108C236.907 18.756 237.551 18.58 238.359 18.58C238.783 18.58 239.207 18.632 239.631 18.736C240.055 18.84 240.403 18.98 240.675 19.156L240.183 20.068C239.663 19.732 239.051 19.564 238.347 19.564C237.859 19.564 237.487 19.644 237.231 19.804C236.975 19.964 236.847 20.176 236.847 20.44C236.847 20.648 236.919 20.812 237.063 20.932C237.207 21.052 237.383 21.14 237.591 21.196C237.807 21.252 238.107 21.316 238.491 21.388C239.003 21.476 239.415 21.572 239.727 21.676C240.047 21.772 240.319 21.94 240.543 22.18C240.767 22.42 240.879 22.756 240.879 23.188C240.879 23.764 240.631 24.224 240.135 24.568C239.647 24.904 238.979 25.072 238.131 25.072Z" fill="#92929D"/>
<path d="M19.7808 4.35606C19.5616 4.38435 19.358 4.48445 19.2017 4.64073L3.77317 20.0693C3.21253 20.6299 3.49613 21.5888 4.27152 21.7543L6.92386 22.3205C7.3095 22.4028 7.61075 22.7041 7.69307 23.0897L8.25924 25.7421C8.42475 26.5175 9.38368 26.801 9.94431 26.2404L25.3729 10.8119C25.5291 10.6556 25.6292 10.4519 25.6575 10.2328L26.3624 4.77095C26.4463 4.12093 25.8926 3.5673 25.2426 3.65119L19.7808 4.35606Z" fill="#2564F4"/>
<path d="M24.0228 17.0841C23.8036 17.1123 23.6 17.2124 23.4437 17.3687L15.85 24.9625C15.5696 25.2428 15.7114 25.7223 16.0991 25.805L17.7423 26.1558L18.093 27.7989C18.1758 28.1866 18.6552 28.3284 18.9355 28.048L26.5293 20.4543C26.6856 20.298 26.7857 20.0944 26.814 19.8752L27.0616 17.9562C27.1455 17.3061 26.5919 16.7525 25.9418 16.8364L24.0228 17.0841Z" fill="#93B0F3"/>
<path d="M9.29541 3.95637C9.07622 3.98466 8.87258 4.08476 8.7163 4.24104L1.12255 11.8348C0.842229 12.1151 0.984026 12.5946 1.37172 12.6773L3.01484 13.0281L3.36558 14.6712C3.44834 15.0589 3.9278 15.2007 4.20812 14.9204L11.8019 7.32661C11.9581 7.17033 12.0583 6.96669 12.0865 6.7475L12.3342 4.82848C12.4181 4.17846 11.8644 3.62482 11.2144 3.70871L9.29541 3.95637Z" fill="#93B0F3"/>
</svg>
